<?xml version="1.0" encoding="UTF-8"?>
<svg id="Layer_2" data-name="Layer 2" xmlns="http://www.w3.org/2000/svg" viewBox="0 0 16 10.01">
  <defs>
    <style>
      .cls-1 {
        fill: #fff;
      }
    </style>
  </defs>
  <g id="Layer_3" data-name="Layer 3">
    <g>
      <path class="cls-1" d="m2.02,5.98h-.01c-.54,0-1.03.21-1.41.58s-.6.9-.6,1.44c0,1.11.9,2.01,2.02,2.01.54,0,1.03-.21,1.42-.58.37-.39.58-.9.58-1.42s-.21-1.05-.58-1.44c-.39-.37-.88-.58-1.42-.58Z"/>
      <path class="cls-1" d="m4.03,2.01c0-.54-.21-1.03-.6-1.42-.37-.37-.88-.58-1.42-.58S.97.21.57.6c-.36.37-.57.87-.57,1.42,0,1.12.9,2.05,2.01,2.05h.01c.58,0,1.18.12,1.72.37.31.14.61.33.87.55.07.06.15.12.21.18s.14.13.19.21c.22.25.42.55.55.87.27.54.4,1.12.4,1.74,0,1.11.91,2.01,2.02,2.01.54,0,1.05-.21,1.42-.58.37-.39.58-.9.58-1.42s-.21-1.05-.58-1.44c-.37-.37-.88-.58-1.42-.58h-.01c-.61,0-1.2-.15-1.72-.4-.31-.15-.6-.34-.85-.57-.15-.12-.29-.25-.4-.4-.23-.25-.42-.54-.57-.85-.25-.52-.4-1.11-.4-1.72h0Z"/>
      <path class="cls-1" d="m11.39,5c.25-.22.55-.42.87-.55.54-.25,1.12-.37,1.71-.37h.02c.55,0,1.03-.21,1.41-.6.4-.39.6-.9.6-1.45s-.21-1.05-.6-1.44-.87-.58-1.42-.58c-.52,0-1.03.21-1.42.6-.37.37-.58.85-.58,1.41h0c0,.63-.13,1.23-.4,1.75-.15.3-.33.58-.57.84-.06.07-.12.15-.19.22-.06.06-.13.12-.19.18-.25.24-.54.42-.85.57.14.07.25.18.37.3.12.12.22.25.31.39.13-.31.33-.61.57-.87.04-.07.12-.15.18-.21.06-.06.14-.12.21-.18Z"/>
      <path class="cls-1" d="m9.41,3.48c.39-.39.6-.9.6-1.45h0c0-.55-.21-1.05-.6-1.44s-.88-.58-1.42-.58-1.03.21-1.42.6-.58.85-.58,1.41h0c0,1.14.9,2.07,2.01,2.07h.01c.54,0,1.03-.21,1.41-.6Z"/>
      <path class="cls-1" d="m11.97,8c0,1.11.9,2.01,2.01,2.01.54,0,1.05-.21,1.42-.58.39-.39.6-.9.6-1.42s-.21-1.05-.6-1.44-.88-.58-1.42-.58h-.02c-.54,0-1.03.21-1.41.58-.37.39-.58.9-.58,1.44Z"/>
    </g>
  </g>
</svg>